<?xml version="1.0" standalone="no"?>
<!DOCTYPE svg PUBLIC "-//W3C//DTD SVG 20010904//EN"
 "http://www.w3.org/TR/2001/REC-SVG-20010904/DTD/svg10.dtd">
<svg version="1.0" xmlns="http://www.w3.org/2000/svg"
 width="260.000000pt" height="260.000000pt" viewBox="0 0 260.000000 260.000000"
 preserveAspectRatio="xMidYMid meet">
<metadata>
Created by potrace 1.14, written by Peter Selinger 2001-2017
</metadata>
<g transform="translate(0.000000,260.000000) scale(0.100000,-0.100000)"
fill="#000000" stroke="none">
<path d="M0 1300 l0 -1300 1300 0 1300 0 0 1300 0 1300 -1300 0 -1300 0 0
-1300z m1423 575 c87 -18 177 -59 177 -80 0 -25 -23 -27 -88 -11 -278 73 -544
-108 -588 -400 -8 -56 -29 -60 201 34 476 194 959 315 1088 273 31 -11 37 -17
37 -42 0 -49 -108 -138 -281 -233 -75 -41 -78 -40 -98 39 -7 28 -16 54 -21 59
-14 14 -100 -8 -315 -79 -188 -62 -455 -165 -547 -211 l-47 -24 15 -37 c26
-67 89 -147 151 -195 221 -167 524 -115 678 118 20 30 43 54 51 54 31 0 27
-34 -11 -109 -97 -190 -298 -314 -510 -314 -115 0 -186 19 -350 95 -208 96
-223 100 -416 96 -178 -3 -199 2 -199 46 1 26 19 48 95 110 162 134 195 177
261 337 25 63 57 134 69 159 123 244 384 371 648 315z"/>
</g>
</svg>
